<svg width="51" height="16" viewBox="0 0 51 16" fill="none" xmlns="http://www.w3.org/2000/svg">
<path d="M8.5 1V2.75M13.8033 3.05022L12.4775 4.28767M16 8H14.125M13.8033 12.9498L12.4775 11.7123M8.5 13.25V15M4.5225 11.7123L3.19667 12.9498M2.875 8H1M4.5225 4.28767L3.19667 3.05022M11.625 8C11.625 8.77355 11.2958 9.51541 10.7097 10.0624C10.1237 10.6094 9.3288 10.9167 8.5 10.9167C7.6712 10.9167 6.87634 10.6094 6.29029 10.0624C5.70424 9.51541 5.375 8.77355 5.375 8C5.375 7.22645 5.70424 6.48459 6.29029 5.93761C6.87634 5.39062 7.6712 5.08333 8.5 5.08333C9.3288 5.08333 10.1237 5.39062 10.7097 5.93761C11.2958 6.48459 11.625 7.22645 11.625 8Z" stroke="black" stroke-width="0.6" strokeLinecap="round" strokeLinejoin="round"/>
<path d="M27.7637 12.1348C27.0957 12.1348 26.5 12.0215 25.9766 11.7949C25.4531 11.5645 25.0254 11.2461 24.6934 10.8398C24.3652 10.4336 24.1152 9.95703 23.9434 9.41016C23.7754 8.86328 23.6914 8.26367 23.6914 7.61133C23.6914 6.74414 23.8496 5.97656 24.166 5.30859C24.4863 4.63672 24.9629 4.10547 25.5957 3.71484C26.2285 3.32422 26.9766 3.12891 27.8398 3.12891C28.7891 3.12891 29.5977 3.32812 30.2656 3.72656L29.9082 4.30664C29.2988 3.93945 28.6113 3.75586 27.8457 3.75586C27.3105 3.75586 26.8301 3.85742 26.4043 4.06055C25.9785 4.25977 25.6289 4.53711 25.3555 4.89258C25.0859 5.24805 24.8789 5.66016 24.7344 6.12891C24.5938 6.59766 24.5234 7.10547 24.5234 7.65234C24.5234 8.1875 24.5879 8.68359 24.7168 9.14062C24.8496 9.59375 25.0469 10 25.3086 10.3594C25.5742 10.7148 25.9258 10.9961 26.3633 11.2031C26.8008 11.4062 27.3047 11.5078 27.875 11.5078C28.4883 11.5078 29.1719 11.3379 29.9258 10.998L30.0781 11.6016C29.5078 11.957 28.7363 12.1348 27.7637 12.1348ZM33.0137 12.1348C32.4746 12.1348 32.0801 12.0137 31.8301 11.7715C31.5801 11.5254 31.4551 11.127 31.4551 10.5762V3.08203L32.1699 3.02344V10.5352C32.1699 10.9258 32.2402 11.1953 32.3809 11.3438C32.5254 11.4922 32.7422 11.5664 33.0312 11.5664C33.2656 11.5664 33.5586 11.5215 33.9102 11.4316L33.9395 11.9941C33.5566 12.0879 33.248 12.1348 33.0137 12.1348ZM36.5234 12.1406C35.918 12.1406 35.4336 11.9883 35.0703 11.6836C34.707 11.3789 34.5254 10.9434 34.5254 10.377C34.5254 10.041 34.5977 9.75 34.7422 9.50391C34.8867 9.25391 35.0957 9.05273 35.3691 8.90039C35.6465 8.74414 35.9609 8.62305 36.3125 8.53711C36.668 8.45117 37.0801 8.39062 37.5488 8.35547C38.0488 8.32422 38.4199 8.29883 38.6621 8.2793V7.56445C38.6621 7.07227 38.5488 6.70312 38.3223 6.45703C38.0996 6.20703 37.7402 6.08203 37.2441 6.08203C36.5645 6.08203 35.9297 6.24414 35.3398 6.56836C35.3242 6.5293 35.2871 6.44531 35.2285 6.31641C35.1738 6.18359 35.1348 6.08203 35.1113 6.01172C35.3535 5.85547 35.6699 5.72461 36.0605 5.61914C36.4512 5.51367 36.834 5.46094 37.209 5.46094C37.9785 5.46094 38.5312 5.62695 38.8672 5.95898C39.2031 6.28711 39.3711 6.87109 39.3711 7.71094V12H38.8027C38.7832 11.9102 38.7539 11.7324 38.7148 11.4668C38.6797 11.2012 38.6621 11.0645 38.6621 11.0566C38.1582 11.7793 37.4453 12.1406 36.5234 12.1406ZM36.5469 11.5605C37.0469 11.5605 37.4902 11.4141 37.877 11.1211C38.2676 10.8242 38.5234 10.4141 38.6445 9.89062V8.79492C38.082 8.8418 37.7988 8.86523 37.7949 8.86523C36.8418 8.95117 36.1797 9.10742 35.8086 9.33398C35.4375 9.56055 35.252 9.91211 35.252 10.3887C35.252 10.7793 35.3691 11.0723 35.6035 11.2676C35.8418 11.4629 36.1562 11.5605 36.5469 11.5605ZM41.1348 12C41.127 8.23047 41.123 6.08984 41.123 5.57812H41.7207L41.7676 6.84375C41.998 6.46094 42.291 6.14844 42.6465 5.90625C43.002 5.66406 43.373 5.54297 43.7598 5.54297C43.9199 5.54297 44.0918 5.55664 44.2754 5.58398L44.2227 6.1875C44.082 6.16406 43.9336 6.15234 43.7773 6.15234C43.2344 6.15234 42.7773 6.36719 42.4062 6.79688C42.0391 7.22266 41.8555 7.72852 41.8555 8.31445V12H41.1348ZM47.8613 11.5605C48.3301 11.5605 48.7246 11.4375 49.0449 11.1914C49.3691 10.9414 49.6035 10.6133 49.748 10.207C49.8965 9.80078 49.9707 9.33398 49.9707 8.80664C49.9707 7.97852 49.7949 7.3125 49.4434 6.80859C49.0918 6.30469 48.5566 6.05273 47.8379 6.05273C47.3691 6.05273 46.9688 6.17969 46.6367 6.43359C46.3086 6.68359 46.0684 7.01367 45.916 7.42383C45.7637 7.83008 45.6875 8.29688 45.6875 8.82422C45.6875 9.625 45.873 10.2812 46.2441 10.793C46.6191 11.3047 47.1582 11.5605 47.8613 11.5605ZM47.8086 12.1406C47.2266 12.1406 46.7129 11.9941 46.2676 11.7012C45.8262 11.4082 45.4883 11.0117 45.2539 10.5117C45.0234 10.0078 44.9082 9.43945 44.9082 8.80664C44.9082 8.33008 44.9746 7.88867 45.1074 7.48242C45.2441 7.07227 45.4375 6.71875 45.6875 6.42188C45.9375 6.12109 46.248 5.88672 46.6191 5.71875C46.9902 5.54688 47.4023 5.46094 47.8555 5.46094C48.457 5.46094 48.9785 5.60938 49.4199 5.90625C49.8613 6.19922 50.1914 6.5957 50.4102 7.0957C50.6328 7.5918 50.7441 8.1582 50.7441 8.79492C50.7441 9.43555 50.6309 10.0059 50.4043 10.5059C50.1777 11.0059 49.8398 11.4043 49.3906 11.7012C48.9414 11.9941 48.4141 12.1406 47.8086 12.1406Z" fill="black"/>
</svg>
