<svg width="14" height="14" viewBox="0 0 14 14" fill="none" xmlns="http://www.w3.org/2000/svg">
<path d="M5.24257 1.62667C5.30428 1.26533 5.62655 1 6.00367 1H7.78161C8.15873 1 8.481 1.26533 8.54271 1.62667L8.68876 2.48067C8.73196 2.73 8.90337 2.938 9.13102 3.06067C9.18176 3.08733 9.23181 3.116 9.28186 3.14533C9.50471 3.276 9.77555 3.31667 10.019 3.228L10.8534 2.924C11.0244 2.86147 11.2127 2.85999 11.3847 2.91981C11.5568 2.97963 11.7014 3.09688 11.7928 3.25067L12.6814 4.74867C12.7727 4.90247 12.8048 5.08275 12.7722 5.25744C12.7395 5.43213 12.6442 5.5899 12.5032 5.70267L11.8154 6.254C11.6145 6.41467 11.5151 6.66267 11.5206 6.91533C11.5215 6.972 11.5215 7.02867 11.5206 7.08533C11.5151 7.33733 11.6145 7.58533 11.8154 7.746L12.5038 8.29733C12.7946 8.53067 12.87 8.934 12.6821 9.25067L11.7921 10.7487C11.7008 10.9024 11.5564 11.0197 11.3845 11.0796C11.2126 11.1396 11.0244 11.1383 10.8534 11.076L10.019 10.772C9.77555 10.6833 9.50471 10.724 9.28118 10.8547C9.23148 10.8841 9.18118 10.9125 9.13033 10.94C8.90337 11.062 8.73196 11.27 8.68876 11.5193L8.54271 12.3733C8.481 12.7353 8.15873 13 7.78161 13H6.00298C5.62586 13 5.30428 12.7347 5.24189 12.3733L5.09584 11.5193C5.05333 11.27 4.88191 11.062 4.65427 10.9393C4.60342 10.9121 4.55313 10.8838 4.50342 10.8547C4.28057 10.724 4.00973 10.6833 3.76563 10.772L2.93117 11.076C2.76025 11.1383 2.57213 11.1397 2.40026 11.0799C2.22838 11.0201 2.08389 10.903 1.99249 10.7493L1.10317 9.25133C1.01194 9.09753 0.979783 8.91725 1.01243 8.74256C1.04507 8.56787 1.1404 8.4101 1.28145 8.29733L1.96986 7.746C2.17008 7.586 2.2695 7.33733 2.2647 7.08533C2.26363 7.02867 2.26363 6.972 2.2647 6.91533C2.2695 6.662 2.17008 6.41467 1.96986 6.254L1.28145 5.70267C1.14057 5.58993 1.04535 5.43229 1.01271 5.25775C0.980073 5.08321 1.01212 4.90307 1.10317 4.74933L1.99249 3.25133C2.08381 3.09742 2.22837 2.98004 2.4004 2.92009C2.57244 2.86014 2.76078 2.86153 2.93186 2.924L3.76563 3.228C4.00973 3.31667 4.28057 3.276 4.50342 3.14533C4.55279 3.116 4.60353 3.088 4.65427 3.06C4.88191 2.938 5.05333 2.73 5.09584 2.48067L5.24257 1.62667Z" stroke="black" stroke-width="0.6" strokeLinecap="round" strokeLinejoin="round"/>
<path d="M8.92832 7C8.92832 7.53043 8.72138 8.03914 8.35303 8.41421C7.98468 8.78929 7.48508 9 6.96416 9C6.44323 9 5.94364 8.78929 5.57529 8.41421C5.20694 8.03914 5 7.53043 5 7C5 6.46957 5.20694 5.96086 5.57529 5.58579C5.94364 5.21071 6.44323 5 6.96416 5C7.48508 5 7.98468 5.21071 8.35303 5.58579C8.72138 5.96086 8.92832 6.46957 8.92832 7Z" stroke="black" stroke-width="0.6" strokeLinecap="round" strokeLinejoin="round"/>
</svg>
