<svg width="18" height="17" viewBox="0 0 18 17" fill="none" xmlns="http://www.w3.org/2000/svg">
<path d="M9 3.16667V8.5H13M17 8.5C17 9.55058 16.7931 10.5909 16.391 11.5615C15.989 12.5321 15.3997 13.414 14.6569 14.1569C13.914 14.8997 13.0321 15.489 12.0615 15.891C11.0909 16.2931 10.0506 16.5 9 16.5C7.94943 16.5 6.90914 16.2931 5.93853 15.891C4.96793 15.489 4.08601 14.8997 3.34315 14.1569C2.60028 13.414 2.011 12.5321 1.60896 11.5615C1.20693 10.5909 1 9.55058 1 8.5C1 6.37827 1.84285 4.34344 3.34315 2.84315C4.84344 1.34285 6.87827 0.5 9 0.5C11.1217 0.5 13.1566 1.34285 14.6569 2.84315C16.1571 4.34344 17 6.37827 17 8.5Z" stroke="#828DD4" stroke-width="0.6" strokeLinecap="round" strokeLinejoin="round"/>
</svg>
