<svg width="18" height="16" viewBox="0 0 18 16" fill="none" xmlns="http://www.w3.org/2000/svg">
<path d="M2.66667 15H2C1.44771 15 1 14.5523 1 14V8C1 7.44772 1.44772 7 2 7H5C5.55228 7 6 7.44772 6 8V14C6 14.5523 5.55228 15 5 15H3.91667" stroke="black" stroke-width="0.6"/>
<path d="M13.6667 15H13C12.4477 15 12 14.5523 12 14V2C12 1.44772 12.4477 1 13 1H16C16.5523 1 17 1.44772 17 2V14C17 14.5523 16.5523 15 16 15H14.9167" stroke="black" stroke-width="0.6"/>
<path d="M8 15H7C6.44772 15 6 14.5523 6 14V5C6 4.44771 6.44772 4 7 4H11C11.5523 4 12 4.44772 12 5V14C12 14.5523 11.5523 15 11 15H9.5" stroke="black" stroke-width="0.6"/>
</svg>
