<svg width="13" height="16" viewBox="0 0 13 16" fill="none" xmlns="http://www.w3.org/2000/svg">
<path d="M12 9.61538V7.73077C12 7.08813 11.7392 6.47181 11.2751 6.0174C10.8109 5.56298 10.1814 5.30769 9.525 5.30769H8.425C8.2062 5.30769 7.99636 5.2226 7.84164 5.07112C7.68692 4.91965 7.6 4.71421 7.6 4.5V3.42308C7.6 2.78044 7.33924 2.16412 6.87509 1.7097C6.41094 1.25529 5.78141 1 5.125 1H3.75M5.125 15H1.825C1.3696 15 1 14.6382 1 14.1923V1.80769C1 1.36185 1.3696 1 1.825 1H5.4C7.15043 1 8.82916 1.68077 10.0669 2.89254C11.3046 4.10431 12 5.74783 12 7.46154V14.1923C12 14.6382 11.6304 15 11.175 15H9.02504" stroke="black" stroke-width="0.6" strokeLinecap="round" strokeLinejoin="round"/>
</svg>
