<svg width="16" height="16" viewBox="0 0 16 16" fill="none" xmlns="http://www.w3.org/2000/svg">
<path d="M7.6 15C8.18005 14.9416 8.75164 14.7984 9.2961 14.5723C10.3925 14.117 11.3295 13.346 11.9888 12.3569C12.6481 11.3677 13 10.2047 13 9.01508H7V3C5.81331 3 4.65328 3.35278 3.66658 4.01372C2.67989 4.67467 1.91085 5.61409 1.45673 6.71321C1.0026 7.81232 0.88378 9.02175 1.11529 10.1886C1.3468 11.3554 1.91825 12.4272 2.75736 13.2684C3.14521 13.6572 3.58218 13.9887 4.05494 14.2557" stroke="black" stroke-width="0.6" strokeLinecap="round" strokeLinejoin="round"/>
<path d="M9 7H15C15 5.4087 14.3679 3.88258 13.2426 2.75736C12.1174 1.63214 10.5913 1 9 1V7Z" stroke="black" stroke-width="0.6" strokeLinecap="round" strokeLinejoin="round"/>
</svg>
