<svg width="14" height="17" viewBox="0 0 14 17" fill="none" xmlns="http://www.w3.org/2000/svg">
<path d="M9.9328 2.26C9.82614 1.89716 9.59916 1.57773 9.28638 1.35029C8.97361 1.12286 8.59214 0.999861 8.2 1H5.8C4.976 1 4.28 1.53308 4.0672 2.26M9.9328 2.26C9.9768 2.40923 10 2.56769 10 2.73077C10 2.88378 9.93679 3.03052 9.82426 3.13872C9.71174 3.24691 9.55913 3.30769 9.4 3.30769H4.6C4.44087 3.30769 4.28826 3.24691 4.17574 3.13872C4.06321 3.03052 4 2.88378 4 2.73077C4 2.56769 4.024 2.40923 4.0672 2.26M9.9328 2.26C10.4496 2.29769 10.9632 2.34462 11.4744 2.40154C12.3544 2.5 13 3.23 13 4.08231V14.2692C13 14.7283 12.8104 15.1685 12.4728 15.4931C12.1352 15.8177 11.6774 16 11.2 16H9.55M4.0672 2.26C3.5524 2.29725 3.03843 2.34444 2.5256 2.40154C1.6448 2.5 1 3.23 1 4.08231V14.2692C1 14.7283 1.18964 15.1685 1.52721 15.4931C1.86477 15.8177 2.32261 16 2.8 16H4.6" stroke="black" stroke-width="0.6" strokeLinecap="round" strokeLinejoin="round"/>
</svg>
