<svg width="299" height="455" viewBox="0 0 299 455" fill="none" xmlns="http://www.w3.org/2000/svg">
<g clip-path="url(#clip0_560_287)">
<path d="M144.993 242.812C145.049 257.117 135.331 266.34 120.418 266.178C106.123 266.017 96.8552 257.197 96.5182 243.484C96.1812 229.286 107.275 218.638 122.019 219.041C135.696 219.418 144.936 228.963 144.993 242.812Z" fill="#828DD4"/>
<path d="M261.046 180.939C246.835 175.266 232.961 177.094 218.975 182.768C197.174 191.629 171.841 194.99 150.93 184.196C143.892 180.562 137.473 175.902 131.659 170.049C116.072 154.346 109.613 135.738 116.943 114.522C123.767 94.6512 141.32 89.0044 160.699 86.3155C181.482 83.4383 195.131 71.2574 198.95 52.4617C202.91 32.94 195.299 15.0047 179.207 5.96989C162.553 -3.38763 140.309 -1.63982 125.481 10.4873C110.09 23.0716 109.472 39.5279 111.803 57.1943C115.763 87.4449 99.1091 109.145 67.8788 115.571C60.1274 117.158 52.1794 117.991 44.5404 119.927C19.2641 126.246 6.03615 148.511 12.7484 172.765C19.1517 195.917 42.4621 209.039 67.0924 203.15C72.9621 201.752 78.5791 199.386 84.4207 197.799C117.673 188.791 147.696 194.115 172.073 218.343C196.732 242.812 188.812 273.573 155.531 285.647C146.825 288.793 137.613 290.836 129.132 294.467C100.008 306.889 95.0087 345.099 119.723 364.567C134.468 376.184 157.16 378.415 172.214 369.703C189.739 359.566 196.507 340.824 190.946 317.887C185.02 293.472 195.721 274.353 220.744 266.77C230.433 263.84 240.853 263.006 250.963 261.473C271.746 258.3 284.834 246.415 287.474 228.023C290.507 206.915 280.452 188.684 261.046 180.939ZM157.666 18.8768C171.764 19.2264 182.296 29.9284 181.734 43.2655C181.201 55.4464 169.826 65.5031 156.542 65.53C142.331 65.5838 132.474 55.6078 132.614 41.3833C132.783 26.9168 142.163 18.5004 157.666 18.8768ZM51.393 184.408C37.1822 184.462 27.3244 174.486 27.4648 160.261C27.6053 145.822 37.0136 137.379 52.5164 137.755C66.615 138.105 77.1468 148.807 76.5851 162.144C76.0515 174.298 64.6771 184.381 51.393 184.408ZM146.095 357.334C131.884 357.307 122.082 347.304 122.307 333.08C122.532 318.64 131.968 310.251 147.471 310.681C161.57 311.084 172.045 321.84 171.399 335.177C170.809 347.358 159.379 357.361 146.095 357.334ZM244.42 242.678C230.209 242.731 220.351 232.755 220.491 218.531C220.632 204.091 230.04 195.648 245.543 196.024C259.642 196.374 270.173 207.076 269.612 220.413C269.106 232.567 257.704 242.651 244.42 242.678Z" fill="#828DD4"/>
</g>
<path d="M24.4316 446.674C20.7402 446.674 17.4785 446.283 14.6465 445.502C11.8145 444.721 9.61719 443.861 8.05469 442.924L9.46094 440.258C13.582 442.484 18.6797 443.598 24.7539 443.598C28.0938 443.598 30.6621 442.729 32.459 440.99C34.2754 439.252 35.1836 436.801 35.1836 433.637C35.1836 432.465 35.0762 431.479 34.8613 430.678C34.6465 429.877 34.2461 429.115 33.6602 428.393C33.0742 427.65 32.2148 427.035 31.082 426.547C29.9688 426.039 28.543 425.609 26.8047 425.258L19.7734 423.852C15.8477 423.07 12.8984 421.84 10.9258 420.16C8.97266 418.48 7.99609 416.088 7.99609 412.982C7.99609 410.971 8.38672 409.232 9.16797 407.768C9.94922 406.283 11.0723 405.102 12.5371 404.223C14.0215 403.344 15.7305 402.699 17.6641 402.289C19.6172 401.859 21.834 401.645 24.3145 401.645C26.7754 401.645 29.1777 401.947 31.5215 402.553C33.8848 403.158 35.8184 403.842 37.3223 404.604L36.3555 407.475C35.2031 406.83 33.4941 406.225 31.2285 405.658C28.9824 405.072 26.6484 404.779 24.2266 404.779C20.1055 404.779 17.0098 405.473 14.9395 406.859C12.8691 408.227 11.834 410.395 11.834 413.363C11.834 415.219 12.4883 416.713 13.7969 417.846C15.1055 418.959 17.0391 419.789 19.5977 420.336L27.4492 421.947C29.4023 422.357 31.0527 422.846 32.4004 423.412C33.7676 423.979 34.9688 424.711 36.0039 425.609C37.0586 426.508 37.8398 427.631 38.3477 428.979C38.8555 430.307 39.1094 431.889 39.1094 433.725C39.1094 437.826 37.7617 441.01 35.0664 443.275C32.3906 445.541 28.8457 446.674 24.4316 446.674ZM46.1113 446C46.0527 426.586 46.0234 415.883 46.0234 413.891H49.1875L49.6562 418.812C50.5938 417.211 51.9902 415.893 53.8457 414.857C55.7207 413.822 57.7031 413.305 59.793 413.305C64.9297 413.305 68.1523 415.326 69.4609 419.369C71.7461 415.326 75.3496 413.305 80.2715 413.305C83.7871 413.305 86.3652 414.311 88.0059 416.322C89.666 418.314 90.4961 421.293 90.4961 425.258V446H86.8633V430.297C86.8633 428.812 86.8438 427.572 86.8047 426.576C86.7656 425.58 86.668 424.496 86.5117 423.324C86.375 422.152 86.1504 421.195 85.8379 420.453C85.5449 419.711 85.1543 419.008 84.666 418.344C84.1777 417.68 83.5527 417.191 82.791 416.879C82.0293 416.566 81.1309 416.41 80.0957 416.41C77.6348 416.41 75.5449 417.143 73.8262 418.607C72.127 420.053 70.9453 422.094 70.2812 424.73C70.3203 426.723 70.3691 428.266 70.4277 429.359V446H66.8242V429.652C66.8242 427.992 66.7754 426.557 66.6777 425.346C66.5801 424.115 66.3848 422.914 66.0918 421.742C65.7988 420.57 65.3984 419.613 64.8906 418.871C64.4023 418.129 63.7383 417.533 62.8984 417.084C62.0781 416.635 61.0918 416.41 59.9395 416.41C57.2832 416.41 55.0566 417.123 53.2598 418.549C51.4824 419.955 50.3301 421.879 49.8027 424.32C49.7637 425.121 49.7441 426.264 49.7441 427.748V446H46.1113ZM107.518 446.703C104.49 446.703 102.068 445.941 100.252 444.418C98.4355 442.895 97.5273 440.717 97.5273 437.885C97.5273 436.205 97.8887 434.75 98.6113 433.52C99.334 432.27 100.379 431.264 101.746 430.502C103.133 429.721 104.705 429.115 106.463 428.686C108.24 428.256 110.301 427.953 112.645 427.777C115.145 427.621 117 427.494 118.211 427.396V423.822C118.211 421.361 117.645 419.516 116.512 418.285C115.398 417.035 113.602 416.41 111.121 416.41C107.723 416.41 104.549 417.221 101.6 418.842C101.521 418.646 101.336 418.227 101.043 417.582C100.77 416.918 100.574 416.41 100.457 416.059C101.668 415.277 103.25 414.623 105.203 414.096C107.156 413.568 109.07 413.305 110.945 413.305C114.793 413.305 117.557 414.135 119.236 415.795C120.916 417.436 121.756 420.355 121.756 424.555V446H118.914C118.816 445.551 118.67 444.662 118.475 443.334C118.299 442.006 118.211 441.322 118.211 441.283C115.691 444.896 112.127 446.703 107.518 446.703ZM107.635 443.803C110.135 443.803 112.352 443.07 114.285 441.605C116.238 440.121 117.518 438.07 118.123 435.453V429.975C115.311 430.209 113.895 430.326 113.875 430.326C109.109 430.756 105.799 431.537 103.943 432.67C102.088 433.803 101.16 435.561 101.16 437.943C101.16 439.896 101.746 441.361 102.918 442.338C104.109 443.314 105.682 443.803 107.635 443.803ZM130.574 446C130.535 427.152 130.516 416.449 130.516 413.891H133.504L133.738 420.219C134.891 418.305 136.355 416.742 138.133 415.531C139.91 414.32 141.766 413.715 143.699 413.715C144.5 413.715 145.359 413.783 146.277 413.92L146.014 416.938C145.311 416.82 144.568 416.762 143.787 416.762C141.072 416.762 138.787 417.836 136.932 419.984C135.096 422.113 134.178 424.643 134.178 427.572V446H130.574ZM160.545 446.674C157.85 446.674 155.877 446.068 154.627 444.857C153.377 443.627 152.752 441.635 152.752 438.881V416.557H148.211L148.475 414.359L152.811 413.949L153.777 406.596L156.326 406.42V413.891H165.701V416.557H156.326V438.119C156.326 440.385 156.697 441.908 157.439 442.689C158.182 443.451 159.49 443.832 161.365 443.832C162.576 443.832 164.08 443.607 165.877 443.158L166.023 445.971C163.66 446.439 161.834 446.674 160.545 446.674ZM176.072 442.865H184.627C190.682 442.865 195.291 441.322 198.455 438.236C201.639 435.131 203.23 430.512 203.23 424.379C203.23 421.02 202.781 418.119 201.883 415.678C201.004 413.236 199.705 411.283 197.986 409.818C196.268 408.334 194.236 407.25 191.893 406.566C189.549 405.863 186.844 405.512 183.777 405.512H176.072V442.865ZM172.322 446V402.406H184.129C187.684 402.406 190.857 402.826 193.65 403.666C196.463 404.506 198.904 405.795 200.975 407.533C203.045 409.252 204.637 411.527 205.75 414.359C206.863 417.172 207.42 420.463 207.42 424.232C207.42 431.361 205.457 436.771 201.531 440.463C197.605 444.154 192.107 446 185.037 446H172.322ZM223.768 446.703C220.74 446.703 218.318 445.941 216.502 444.418C214.686 442.895 213.777 440.717 213.777 437.885C213.777 436.205 214.139 434.75 214.861 433.52C215.584 432.27 216.629 431.264 217.996 430.502C219.383 429.721 220.955 429.115 222.713 428.686C224.49 428.256 226.551 427.953 228.895 427.777C231.395 427.621 233.25 427.494 234.461 427.396V423.822C234.461 421.361 233.895 419.516 232.762 418.285C231.648 417.035 229.852 416.41 227.371 416.41C223.973 416.41 220.799 417.221 217.85 418.842C217.771 418.646 217.586 418.227 217.293 417.582C217.02 416.918 216.824 416.41 216.707 416.059C217.918 415.277 219.5 414.623 221.453 414.096C223.406 413.568 225.32 413.305 227.195 413.305C231.043 413.305 233.807 414.135 235.486 415.795C237.166 417.436 238.006 420.355 238.006 424.555V446H235.164C235.066 445.551 234.92 444.662 234.725 443.334C234.549 442.006 234.461 441.322 234.461 441.283C231.941 444.896 228.377 446.703 223.768 446.703ZM223.885 443.803C226.385 443.803 228.602 443.07 230.535 441.605C232.488 440.121 233.768 438.07 234.373 435.453V429.975C231.561 430.209 230.145 430.326 230.125 430.326C225.359 430.756 222.049 431.537 220.193 432.67C218.338 433.803 217.41 435.561 217.41 437.943C217.41 439.896 217.996 441.361 219.168 442.338C220.359 443.314 221.932 443.803 223.885 443.803ZM255.818 446.674C253.123 446.674 251.15 446.068 249.9 444.857C248.65 443.627 248.025 441.635 248.025 438.881V416.557H243.484L243.748 414.359L248.084 413.949L249.051 406.596L251.6 406.42V413.891H260.975V416.557H251.6V438.119C251.6 440.385 251.971 441.908 252.713 442.689C253.455 443.451 254.764 443.832 256.639 443.832C257.85 443.832 259.354 443.607 261.15 443.158L261.297 445.971C258.934 446.439 257.107 446.674 255.818 446.674ZM275.154 446.703C272.127 446.703 269.705 445.941 267.889 444.418C266.072 442.895 265.164 440.717 265.164 437.885C265.164 436.205 265.525 434.75 266.248 433.52C266.971 432.27 268.016 431.264 269.383 430.502C270.77 429.721 272.342 429.115 274.1 428.686C275.877 428.256 277.938 427.953 280.281 427.777C282.781 427.621 284.637 427.494 285.848 427.396V423.822C285.848 421.361 285.281 419.516 284.148 418.285C283.035 417.035 281.238 416.41 278.758 416.41C275.359 416.41 272.186 417.221 269.236 418.842C269.158 418.646 268.973 418.227 268.68 417.582C268.406 416.918 268.211 416.41 268.094 416.059C269.305 415.277 270.887 414.623 272.84 414.096C274.793 413.568 276.707 413.305 278.582 413.305C282.43 413.305 285.193 414.135 286.873 415.795C288.553 417.436 289.393 420.355 289.393 424.555V446H286.551C286.453 445.551 286.307 444.662 286.111 443.334C285.936 442.006 285.848 441.322 285.848 441.283C283.328 444.896 279.764 446.703 275.154 446.703ZM275.271 443.803C277.771 443.803 279.988 443.07 281.922 441.605C283.875 440.121 285.154 438.07 285.76 435.453V429.975C282.947 430.209 281.531 430.326 281.512 430.326C276.746 430.756 273.436 431.537 271.58 432.67C269.725 433.803 268.797 435.561 268.797 437.943C268.797 439.896 269.383 441.361 270.555 442.338C271.746 443.314 273.318 443.803 275.271 443.803Z" fill="#828DD4"/>
<defs>
<clipPath id="clip0_560_287">
<rect width="277" height="375" fill="white" transform="translate(11)"/>
</clipPath>
</defs>
</svg>
