<svg width="14" height="14" viewBox="0 0 14 14" fill="none" xmlns="http://www.w3.org/2000/svg">
<path d="M8.49951 4.83333V2.125C8.49951 1.69402 8.3302 1.2807 8.02882 0.975951C7.72744 0.671205 7.31869 0.5 6.89247 0.5H2.60704C2.18083 0.5 1.77207 0.671205 1.47069 0.975951C1.16931 1.2807 1 1.69402 1 2.125V11.875C1 12.306 1.16931 12.7193 1.47069 13.024C1.77207 13.3288 2.18083 13.5 2.60704 13.5H6.89247C7.31869 13.5 7.72744 13.3288 8.02882 13.024C8.3302 12.7193 8.49951 12.306 8.49951 11.875V9.16667M10.6422 9.16667L12.7849 7M12.7849 7L10.6422 4.83333M12.7849 7H3.6784" stroke="#FF4228" stroke-width="0.6" strokeLinecap="round" strokeLinejoin="round"/>
</svg>
