<svg width="18" height="17" viewBox="0 0 18 17" fill="none" xmlns="http://www.w3.org/2000/svg">
<path d="M9.32349 3.16667V8.5H13.3235M17.3235 8.5C17.3235 9.55058 17.1166 10.5909 16.7145 11.5615C16.3125 12.5321 15.7232 13.414 14.9803 14.1569C14.2375 14.8997 13.3556 15.489 12.385 15.891C11.4143 16.2931 10.3741 16.5 9.32349 16.5C8.27291 16.5 7.23262 16.2931 6.26202 15.891C5.29141 15.489 4.4095 14.8997 3.66663 14.1569C2.92376 13.414 2.33449 12.5321 1.93245 11.5615C1.53041 10.5909 1.32349 9.55058 1.32349 8.5C1.32349 6.37827 2.16634 4.34344 3.66663 2.84315C5.16692 1.34285 7.20175 0.5 9.32349 0.5C11.4452 0.5 13.48 1.34285 14.9803 2.84315C16.4806 4.34344 17.3235 6.37827 17.3235 8.5Z" stroke="#88D182" strokeLinecap="round" strokeLinejoin="round"/>
</svg>
