<svg width="16" height="17" viewBox="0 0 16 17" fill="none" xmlns="http://www.w3.org/2000/svg">
<path d="M10.6483 6.03874L10.3548 13.4232M6.29221 13.4232L5.99864 6.03874M14.4563 3.40497C14.7465 3.44763 15.035 3.49276 15.3235 3.54117M14.4563 3.40497L13.5502 14.7958C13.5132 15.2596 13.2965 15.6928 12.9435 16.0087C12.5905 16.3247 12.1272 16.5001 11.6462 16.5H5.00082C4.51981 16.5001 4.05648 16.3247 3.70347 16.0087C3.35046 15.6928 3.1338 15.2596 3.09682 14.7958L2.19064 3.40497M14.4563 3.40497C13.4771 3.2618 12.4927 3.15315 11.5053 3.07923M2.19064 3.40497C1.90046 3.44681 1.61197 3.49194 1.32349 3.54035M2.19064 3.40497C3.1699 3.26181 4.15423 3.15316 5.14167 3.07923M11.5053 3.07923V2.32766C11.5053 1.35948 10.7332 0.552119 9.73197 0.52176C8.79322 0.492747 7.85375 0.492747 6.915 0.52176C5.91379 0.552119 5.14167 1.3603 5.14167 2.32766V3.07923M11.5053 3.07923C9.38725 2.92094 7.25972 2.92094 5.14167 3.07923" stroke="black" strokeLinecap="round" strokeLinejoin="round"/>
</svg>
