<svg width="68" height="68" viewBox="0 0 68 68" fill="none" xmlns="http://www.w3.org/2000/svg">
<circle cx="34" cy="34" r="34" fill="url(#paint0_linear_562_1940)"/>
<path d="M31.9598 40.5468C31.966 42.1108 30.881 43.1192 29.2159 43.1015C27.6197 43.0839 26.5849 42.1196 26.5472 40.6203C26.5096 39.068 27.7483 37.9039 29.3946 37.948C30.9218 37.9891 31.9535 39.0328 31.9598 40.5468Z" fill="#FAFAFA"/>
<path d="M44.918 33.7823C43.3313 33.1619 41.7821 33.3619 40.2205 33.9822C37.783 34.9523 34.9652 35.322 32.6238 34.1388C31.8375 33.7415 31.1204 33.2318 30.471 32.5916C28.7306 30.8747 28.0093 28.8404 28.8278 26.5208C29.5898 24.3483 31.5497 23.7309 33.7135 23.4369C36.0341 23.1223 37.5581 21.7906 37.9846 19.7356C38.4267 17.6013 37.5769 15.6404 35.7801 14.6526C33.9205 13.6295 31.4368 13.8206 29.7811 15.1465C28.0626 16.5224 27.9936 18.3215 28.2539 20.253C28.6961 23.5604 26.8365 25.9328 23.3494 26.6355C22.4839 26.8089 21.5964 26.9001 20.7435 27.1117C17.9212 27.8026 16.4442 30.2368 17.1936 32.8885C17.9086 35.4198 20.5114 36.8544 23.2616 36.2106C23.917 36.0577 24.5442 35.799 25.1964 35.6255C28.9093 34.6407 32.2616 35.2228 34.9835 37.8716C37.7368 40.5469 36.8525 43.9101 33.1365 45.2301C32.1644 45.574 31.1358 45.7975 30.1888 46.1943C26.9368 47.5526 26.3787 51.7301 29.1382 53.8585C30.7846 55.1286 33.3184 55.3726 34.9992 54.4201C36.956 53.3117 37.7118 51.2627 37.0909 48.755C36.4292 46.0856 37.624 43.9953 40.418 43.1663C41.4999 42.8458 42.6633 42.7547 43.7922 42.5871C46.1128 42.2402 47.5741 40.9408 47.8689 38.93C48.2076 36.6222 47.0849 34.6289 44.918 33.7823ZM33.3748 16.0637C34.949 16.102 36.125 17.272 36.0623 18.7302C36.0027 20.0619 34.7327 21.1614 33.2494 21.1644C31.6626 21.1703 30.5619 20.0796 30.5776 18.5244C30.5964 16.9428 31.6438 16.0226 33.3748 16.0637ZM21.5086 34.1615C19.9219 34.1674 18.8212 33.0767 18.8368 31.5215C18.8525 29.9428 19.9031 29.0197 21.6341 29.0608C23.2083 29.0991 24.3842 30.2691 24.3215 31.7273C24.2619 33.0561 22.9919 34.1586 21.5086 34.1615ZM32.0828 53.0677C30.4961 53.0648 29.4017 51.9712 29.4267 50.416C29.4518 48.8373 30.5055 47.92 32.2365 47.9671C33.8107 48.0112 34.9804 49.1871 34.9083 50.6453C34.8424 51.977 33.5661 53.0707 32.0828 53.0677ZM43.0616 40.5322C41.4748 40.5381 40.3741 39.4474 40.3898 37.8922C40.4055 36.3135 41.456 35.3904 43.187 35.4315C44.7612 35.4697 45.9372 36.6398 45.8745 38.098C45.818 39.4268 44.5449 40.5292 43.0616 40.5322Z" fill="#FAFAFA"/>
<path d="M42.4298 28.8029L41.8462 30.8462L41.2625 28.8029C41.1116 28.2751 40.8287 27.7944 40.4406 27.4063C40.0524 27.0181 39.5718 26.7353 39.044 26.5844L37 26L39.0433 25.4163C39.5711 25.2654 40.0517 24.9826 40.4399 24.5944C40.828 24.2063 41.1109 23.7256 41.2617 23.1978L41.8462 21.1538L42.4298 23.1971C42.5807 23.7249 42.8636 24.2056 43.2517 24.5937C43.6399 24.9819 44.1205 25.2647 44.6483 25.4156L46.6923 26L44.649 26.5837C44.1212 26.7346 43.6406 27.0174 43.2524 27.4056C42.8643 27.7937 42.5814 28.2744 42.4306 28.8022L42.4298 28.8029ZM48.4936 23.6415L48.3077 24.3846L48.1217 23.6415C48.0153 23.2155 47.7951 22.8264 47.4846 22.5158C47.1742 22.2052 46.7852 21.9849 46.3592 21.8783L45.6154 21.6923L46.3592 21.5064C46.7852 21.3997 47.1742 21.1794 47.4846 20.8688C47.7951 20.5582 48.0153 20.1691 48.1217 19.7431L48.3077 19L48.4936 19.7431C48.6001 20.1692 48.8205 20.5584 49.131 20.869C49.4416 21.1795 49.8308 21.3999 50.2569 21.5064L51 21.6923L50.2569 21.8783C49.8308 21.9848 49.4416 22.2051 49.131 22.5157C48.8205 22.8262 48.6001 23.2154 48.4936 23.6415ZM47.5136 32.1507L47.2308 33L46.9479 32.1507C46.8686 31.9128 46.735 31.6966 46.5577 31.5193C46.3803 31.3419 46.1642 31.2083 45.9263 31.129L45.0769 30.8462L45.9263 30.5633C46.1642 30.484 46.3803 30.3504 46.5577 30.173C46.735 29.9957 46.8686 29.7795 46.9479 29.5416L47.2308 28.6923L47.5136 29.5416C47.5929 29.7795 47.7266 29.9957 47.9039 30.173C48.0812 30.3504 48.2974 30.484 48.5353 30.5633L49.3846 30.8462L48.5353 31.129C48.2974 31.2083 48.0812 31.3419 47.9039 31.5193C47.7266 31.6966 47.5929 31.9128 47.5136 32.1507Z" fill="#FAFAFA"/>
<defs>
<linearGradient id="paint0_linear_562_1940" x1="11.3333" y1="-1.6888e-07" x2="68" y2="68" gradientUnits="userSpaceOnUse">
<stop stop-color="#9747FF"/>
<stop offset="1" stop-color="#B469DA"/>
</linearGradient>
</defs>
</svg>
