<svg width="14" height="14" viewBox="0 0 14 14" fill="none" xmlns="http://www.w3.org/2000/svg">
<path d="M4.92832 10.5V11.1713C4.92835 11.4341 4.87754 11.6942 4.77879 11.937C4.68004 12.1797 4.5353 12.4002 4.35282 12.586L3.94624 13M9.83871 13L9.43213 12.586C9.24965 12.4002 9.1049 12.1797 9.00616 11.937C8.90741 11.6942 8.8566 11.4341 8.85663 11.1713V10.5M12.7849 2.5V9C12.7849 9.39782 12.6297 9.77936 12.3535 10.0607C12.0772 10.342 11.7025 10.5 11.3118 10.5H2.47312C2.08242 10.5 1.70773 10.342 1.43147 10.0607C1.1552 9.77936 1 9.39782 1 9V2.5M12.7849 2.5C12.7849 2.10218 12.6297 1.72064 12.3535 1.43934C12.0772 1.15804 11.7025 1 11.3118 1H2.47312C2.08242 1 1.70773 1.15804 1.43147 1.43934C1.1552 1.72064 1 2.10218 1 2.5M12.7849 2.5V7C12.7849 7.39782 12.6297 7.77936 12.3535 8.06066C12.0772 8.34196 11.7025 8.5 11.3118 8.5H2.47312C2.08242 8.5 1.70773 8.34196 1.43147 8.06066C1.1552 7.77936 1 7.39782 1 7V2.5" stroke="black" stroke-width="0.6" strokeLinecap="round" strokeLinejoin="round"/>
</svg>
