<svg width="17" height="18" viewBox="0 0 17 18" fill="none" xmlns="http://www.w3.org/2000/svg">
<path d="M1 3.18182C1 2.60316 1.2155 2.04821 1.5991 1.63904C1.9827 1.22987 2.50297 1 3.04545 1H5.09091C5.6334 1 6.15367 1.22987 6.53726 1.63904C6.92086 2.04821 7.13636 2.60316 7.13636 3.18182V5.36364C7.13636 5.94229 6.92086 6.49724 6.53726 6.90641C6.15367 7.31559 5.6334 7.54545 5.09091 7.54545H3.04545C2.50297 7.54545 1.9827 7.31559 1.5991 6.90641C1.2155 6.49724 1 5.94229 1 5.36364V3.18182ZM1 12.6364C1 12.0577 1.2155 11.5028 1.5991 11.0936C1.9827 10.6844 2.50297 10.4545 3.04545 10.4545H5.09091C5.6334 10.4545 6.15367 10.6844 6.53726 11.0936C6.92086 11.5028 7.13636 12.0577 7.13636 12.6364V14.8182C7.13636 15.3968 6.92086 15.9518 6.53726 16.361C6.15367 16.7701 5.6334 17 5.09091 17H3.04545C2.50297 17 1.9827 16.7701 1.5991 16.361C1.2155 15.9518 1 15.3968 1 14.8182V12.6364ZM9.86364 3.18182C9.86364 2.60316 10.0791 2.04821 10.4627 1.63904C10.8463 1.22987 11.3666 1 11.9091 1H13.9545C14.497 1 15.0173 1.22987 15.4009 1.63904C15.7845 2.04821 16 2.60316 16 3.18182V5.36364C16 5.94229 15.7845 6.49724 15.4009 6.90641C15.0173 7.31559 14.497 7.54545 13.9545 7.54545H11.9091C11.3666 7.54545 10.8463 7.31559 10.4627 6.90641C10.0791 6.49724 9.86364 5.94229 9.86364 5.36364V3.18182ZM9.86364 12.6364C9.86364 12.0577 10.0791 11.5028 10.4627 11.0936C10.8463 10.6844 11.3666 10.4545 11.9091 10.4545H13.9545C14.497 10.4545 15.0173 10.6844 15.4009 11.0936C15.7845 11.5028 16 12.0577 16 12.6364V14.8182C16 15.3968 15.7845 15.9518 15.4009 16.361C15.0173 16.7701 14.497 17 13.9545 17H11.9091C11.3666 17 10.8463 16.7701 10.4627 16.361C10.0791 15.9518 9.86364 15.3968 9.86364 14.8182V12.6364Z" stroke="#828DD4" stroke-width="0.6" strokeLinecap="round" strokeLinejoin="round"/>
</svg>
