<svg width="19" height="14" viewBox="0 0 19 14" fill="none" xmlns="http://www.w3.org/2000/svg">
<path d="M6.15367 1.4H18.1653M6.15367 7H18.1653M6.15367 12.6H18.1653M1.64929 1.4H1.6563V1.40853H1.64929V1.4ZM2.02466 1.4C2.02466 1.50609 1.98511 1.60783 1.91471 1.68284C1.84432 1.75786 1.74884 1.8 1.64929 1.8C1.54974 1.8 1.45426 1.75786 1.38387 1.68284C1.31347 1.60783 1.27393 1.50609 1.27393 1.4C1.27393 1.29391 1.31347 1.19217 1.38387 1.11716C1.45426 1.04214 1.54974 1 1.64929 1C1.74884 1 1.84432 1.04214 1.91471 1.11716C1.98511 1.19217 2.02466 1.29391 2.02466 1.4ZM1.64929 7H1.6563V7.00853H1.64929V7ZM2.02466 7C2.02466 7.10609 1.98511 7.20783 1.91471 7.28284C1.84432 7.35786 1.74884 7.4 1.64929 7.4C1.54974 7.4 1.45426 7.35786 1.38387 7.28284C1.31347 7.20783 1.27393 7.10609 1.27393 7C1.27393 6.89391 1.31347 6.79217 1.38387 6.71716C1.45426 6.64214 1.54974 6.6 1.64929 6.6C1.74884 6.6 1.84432 6.64214 1.91471 6.71716C1.98511 6.79217 2.02466 6.89391 2.02466 7ZM1.64929 12.6H1.6563V12.6085H1.64929V12.6ZM2.02466 12.6C2.02466 12.7061 1.98511 12.8078 1.91471 12.8828C1.84432 12.9579 1.74884 13 1.64929 13C1.54974 13 1.45426 12.9579 1.38387 12.8828C1.31347 12.8078 1.27393 12.7061 1.27393 12.6C1.27393 12.4939 1.31347 12.3922 1.38387 12.3172C1.45426 12.2421 1.54974 12.2 1.64929 12.2C1.74884 12.2 1.84432 12.2421 1.91471 12.3172C1.98511 12.3922 2.02466 12.4939 2.02466 12.6Z" stroke="#828DD4" stroke-width="0.6" strokeLinecap="round" strokeLinejoin="round"/>
</svg>
