<svg width="16" height="18" viewBox="0 0 16 18" fill="none" xmlns="http://www.w3.org/2000/svg">
<path d="M10.3248 6.53874L10.0313 13.9232M5.96873 13.9232L5.67515 6.53874M14.1328 3.90497C14.423 3.94763 14.7115 3.99276 15 4.04117M14.1328 3.90497L13.2267 15.2958C13.1897 15.7596 12.973 16.1928 12.62 16.5087C12.267 16.8247 11.8037 17.0001 11.3227 17H4.67733C4.19632 17.0001 3.73299 16.8247 3.37998 16.5087C3.02698 16.1928 2.81032 15.7596 2.77333 15.2958L1.86715 3.90497M14.1328 3.90497C13.1536 3.7618 12.1693 3.65315 11.1818 3.57923M1.86715 3.90497C1.57697 3.94681 1.28848 3.99194 1 4.04035M1.86715 3.90497C2.84642 3.76181 3.83074 3.65316 4.81818 3.57923M11.1818 3.57923V2.82766C11.1818 1.85948 10.4097 1.05212 9.40848 1.02176C8.46973 0.992747 7.53027 0.992747 6.59152 1.02176C5.5903 1.05212 4.81818 1.8603 4.81818 2.82766V3.57923M11.1818 3.57923C9.06376 3.42094 6.93624 3.42094 4.81818 3.57923" stroke="#FF4228" strokeLinecap="round" strokeLinejoin="round"/>
</svg>
