<svg width="13" height="14" viewBox="0 0 13 14" fill="none" xmlns="http://www.w3.org/2000/svg">
<path d="M1 13.5C1.02357 12.0684 1.6134 10.7034 2.64228 9.69927C3.67117 8.69516 5.05667 8.13242 6.5 8.13242C7.94333 8.13242 9.32883 8.69516 10.3577 9.69927C11.3866 10.7034 11.9764 12.0684 12 13.5M9.25037 3.22834C9.25037 3.95194 8.9606 4.64591 8.4448 5.15757C7.92901 5.66923 7.22944 5.95668 6.5 5.95668C5.77056 5.95668 5.07099 5.66923 4.5552 5.15757C4.0394 4.64591 3.74963 3.95194 3.74963 3.22834C3.74963 2.50474 4.0394 1.81078 4.5552 1.29911C5.07099 0.787449 5.77056 0.5 6.5 0.5C7.22944 0.5 7.92901 0.787449 8.4448 1.29911C8.9606 1.81078 9.25037 2.50474 9.25037 3.22834Z" stroke="black" stroke-width="0.6" strokeLinecap="round" strokeLinejoin="round"/>
</svg>
