<svg width="17" height="14" viewBox="0 0 17 14" fill="none" xmlns="http://www.w3.org/2000/svg">
<path d="M2.40727 5.38255C2.48998 5.37018 2.5749 5.36364 2.66131 5.36364H14.338C14.4244 5.36364 14.5093 5.37018 14.592 5.38255M2.40727 5.38255C1.97509 5.44846 1.58673 5.67952 1.32642 6.02561C1.0661 6.3717 0.954831 6.80491 1.01674 7.23127L1.64961 11.5949C1.70613 11.9848 1.90356 12.3416 2.20566 12.5997C2.50775 12.8578 2.89424 12.9999 3.29417 13H13.7058C14.1058 12.9999 14.4922 12.8578 14.7943 12.5997C15.0964 12.3416 15.2939 11.9848 15.3504 11.5949L15.9833 7.23127C16.0452 6.80491 15.9339 6.3717 15.6736 6.02561C15.4133 5.67952 15.0242 5.44846 14.592 5.38255M2.40727 5.38255L2.40801 2.63636C2.40801 2.2025 2.58297 1.78639 2.89441 1.47954C3.20585 1.17268 3.62828 1.00019 4.06882 1H6.93334C7.22702 1.00025 7.50858 1.11536 7.71612 1.32L9.28314 2.86182C9.49068 3.06646 9.77224 3.18156 10.0659 3.18182H12.9304C13.3711 3.18182 13.7937 3.35422 14.1053 3.6611C14.4169 3.96798 14.592 4.38419 14.592 4.81818V5.38255" stroke="black" stroke-width="0.6" strokeLinecap="round" strokeLinejoin="round"/>
</svg>
