<svg width="58" height="17" viewBox="0 0 58 17" fill="none" xmlns="http://www.w3.org/2000/svg">
<path d="M24.0664 13V4.28125H28.9238L28.8945 4.90234H24.8164V8.18359H28.6953V8.82227H24.8164V12.373H29.0234L28.959 13H24.0664ZM32.4277 13.1465C32.0137 13.1465 31.625 13.0957 31.2617 12.9941C30.8984 12.8926 30.6113 12.7715 30.4004 12.6309L30.5059 12.0215C31.1504 12.3574 31.7676 12.5254 32.3574 12.5254C33.416 12.5254 33.9648 12.1328 34.0039 11.3477C34.0039 11.0195 33.8965 10.7617 33.6816 10.5742C33.4707 10.3867 33.0449 10.1914 32.4043 9.98828C32.0684 9.87109 31.8828 9.80664 31.8477 9.79492C30.8438 9.49023 30.3379 8.94922 30.3301 8.17188C30.3301 7.72266 30.5273 7.32617 30.9219 6.98242C31.3203 6.63477 31.8574 6.46094 32.5332 6.46094C33.209 6.46094 33.8438 6.59375 34.4375 6.85938L34.1914 7.39844C33.5898 7.17188 33.0312 7.05859 32.5156 7.05859C32.0625 7.05859 31.7051 7.16016 31.4434 7.36328C31.1855 7.56641 31.0566 7.83984 31.0566 8.18359C31.0566 8.47266 31.1406 8.69531 31.3086 8.85156C31.4805 9.00391 31.8184 9.15039 32.3223 9.29102C32.377 9.30664 32.4766 9.3418 32.6211 9.39648C32.7695 9.45117 32.8516 9.48047 32.8672 9.48438C33.543 9.69141 34.0137 9.9375 34.2793 10.2227C34.5488 10.5039 34.6836 10.8887 34.6836 11.377C34.6719 11.9395 34.4609 12.375 34.0508 12.6836C33.6445 12.9922 33.1035 13.1465 32.4277 13.1465ZM38.7617 13.1406C38.1406 13.1406 37.6016 12.9883 37.1445 12.6836C36.6875 12.3789 36.3477 11.9824 36.125 11.4941C35.9023 11.002 35.791 10.4551 35.791 9.85352C35.791 9.39258 35.8574 8.95898 35.9902 8.55273C36.123 8.14648 36.3105 7.78711 36.5527 7.47461C36.7988 7.16211 37.1133 6.91602 37.4961 6.73633C37.8828 6.55273 38.3125 6.46094 38.7852 6.46094C39.0938 6.46094 39.4004 6.50195 39.7051 6.58398C40.0137 6.66602 40.2422 6.76367 40.3906 6.87695L40.1621 7.42188C39.7598 7.19531 39.2832 7.08203 38.7324 7.08203C38.0645 7.08203 37.5352 7.33594 37.1445 7.84375C36.7539 8.34766 36.5586 9.01758 36.5586 9.85352C36.5586 10.6543 36.752 11.3027 37.1387 11.7988C37.5293 12.291 38.0605 12.5371 38.7324 12.5371C39.2012 12.5371 39.7051 12.4199 40.2441 12.1855L40.3555 12.707C40.1719 12.8438 39.9336 12.9492 39.6406 13.0234C39.3477 13.1016 39.0547 13.1406 38.7617 13.1406ZM44.1348 13.1582C43.7988 13.1582 43.4863 13.1191 43.1973 13.041C42.9121 12.9668 42.6465 12.8496 42.4004 12.6895C42.1543 12.5254 41.959 12.2949 41.8145 11.998C41.6738 11.7012 41.6035 11.3516 41.6035 10.9492V6.57812H42.3301V10.9668C42.3301 11.2715 42.377 11.5293 42.4707 11.7402C42.5645 11.9512 42.6992 12.1113 42.875 12.2207C43.0508 12.3262 43.2383 12.4004 43.4375 12.4434C43.6367 12.4863 43.8691 12.5078 44.1348 12.5078C44.3965 12.5078 44.627 12.4863 44.8262 12.4434C45.0254 12.3965 45.2109 12.3184 45.3828 12.209C45.5547 12.0996 45.6855 11.9414 45.7754 11.7344C45.8691 11.5234 45.916 11.2676 45.916 10.9668V6.57812H46.6426V10.9492C46.6426 11.2773 46.5957 11.5703 46.502 11.8281C46.4082 12.0859 46.2832 12.2969 46.127 12.4609C45.9707 12.625 45.7812 12.7617 45.5586 12.8711C45.3398 12.9766 45.1133 13.0508 44.8789 13.0938C44.6484 13.1367 44.4004 13.1582 44.1348 13.1582ZM48.2363 13C48.2285 9.23047 48.2246 7.08984 48.2246 6.57812H48.8223L48.8691 7.84375C49.0996 7.46094 49.3926 7.14844 49.748 6.90625C50.1035 6.66406 50.4746 6.54297 50.8613 6.54297C51.0215 6.54297 51.1934 6.55664 51.377 6.58398L51.3242 7.1875C51.1836 7.16406 51.0352 7.15234 50.8789 7.15234C50.3359 7.15234 49.8789 7.36719 49.5078 7.79688C49.1406 8.22266 48.957 8.72852 48.957 9.31445V13H48.2363ZM54.9629 12.5605C55.4316 12.5605 55.8262 12.4375 56.1465 12.1914C56.4707 11.9414 56.7051 11.6133 56.8496 11.207C56.998 10.8008 57.0723 10.334 57.0723 9.80664C57.0723 8.97852 56.8965 8.3125 56.5449 7.80859C56.1934 7.30469 55.6582 7.05273 54.9395 7.05273C54.4707 7.05273 54.0703 7.17969 53.7383 7.43359C53.4102 7.68359 53.1699 8.01367 53.0176 8.42383C52.8652 8.83008 52.7891 9.29688 52.7891 9.82422C52.7891 10.625 52.9746 11.2812 53.3457 11.793C53.7207 12.3047 54.2598 12.5605 54.9629 12.5605ZM54.9102 13.1406C54.3281 13.1406 53.8145 12.9941 53.3691 12.7012C52.9277 12.4082 52.5898 12.0117 52.3555 11.5117C52.125 11.0078 52.0098 10.4395 52.0098 9.80664C52.0098 9.33008 52.0762 8.88867 52.209 8.48242C52.3457 8.07227 52.5391 7.71875 52.7891 7.42188C53.0391 7.12109 53.3496 6.88672 53.7207 6.71875C54.0918 6.54688 54.5039 6.46094 54.957 6.46094C55.5586 6.46094 56.0801 6.60938 56.5215 6.90625C56.9629 7.19922 57.293 7.5957 57.5117 8.0957C57.7344 8.5918 57.8457 9.1582 57.8457 9.79492C57.8457 10.4355 57.7324 11.0059 57.5059 11.5059C57.2793 12.0059 56.9414 12.4043 56.4922 12.7012C56.043 12.9941 55.5156 13.1406 54.9102 13.1406Z" fill="black"/>
<path d="M16 11.2021C15.0491 11.5984 14.0289 11.8018 12.9987 11.8004C8.69118 11.8004 5.19955 8.30882 5.19955 4.00128C5.19955 2.93739 5.41233 1.9239 5.79789 1C4.37681 1.59283 3.16294 2.59291 2.30916 3.8743C1.45538 5.15568 0.999868 6.66106 1 8.20083C1 12.5084 4.49163 16 8.79917 16C10.3389 16.0001 11.8443 15.5446 13.1257 14.6908C14.4071 13.8371 15.4072 12.6232 16 11.2021Z" stroke="black" stroke-width="0.6" strokeLinecap="round" strokeLinejoin="round"/>
</svg>