<svg width="236" height="328" viewBox="0 0 236 328" fill="none" xmlns="http://www.w3.org/2000/svg">
<g opacity="0.3" clip-path="url(#clip0_246_698)">
<path d="M114.16 212.379C114.207 224.891 105.928 232.959 93.2227 232.817C81.0434 232.676 73.1473 224.962 72.8601 212.967C72.573 200.549 82.0245 191.235 94.5866 191.588C106.239 191.917 114.112 200.267 114.16 212.379Z" fill="#828DD4"/>
<path d="M113.825 116.35C113.944 103.72 121.96 96.335 135.168 96.6643C147.18 96.97 156.153 106.331 155.674 117.996C155.22 128.65 145.529 137.447 134.211 137.47C122.104 137.517 113.681 128.815 113.825 116.35Z" fill="#828DD4"/>
<path d="M213.036 158.262C200.929 153.299 189.108 154.898 177.192 159.861C158.651 167.598 136.959 170.516 119.209 161.104C113.217 157.927 107.751 153.853 102.801 148.736C89.5207 135.001 84.0173 118.726 90.2624 100.169C96.0769 82.7883 111.032 77.8493 127.542 75.4973C145.249 72.9808 156.877 62.3265 160.132 45.8866C163.505 28.8116 157.021 13.1242 143.31 5.22173C129.121 -2.96298 110.17 -1.43423 97.5365 9.17297C84.424 20.18 83.8976 34.5738 85.8836 50.026C89.2575 76.4852 75.0683 95.4652 48.4606 101.086C41.8565 102.474 35.0849 103.203 28.5765 104.896C7.0415 110.423 -4.22849 129.897 1.49025 151.112C6.94579 171.362 26.8059 182.839 47.7906 177.689C52.7915 176.466 57.577 174.396 62.554 173.008C90.8846 165.129 116.463 169.786 137.233 190.977C158.241 212.38 151.494 239.286 123.139 249.846C115.722 252.598 107.873 254.385 100.647 257.56C75.834 268.426 71.5748 301.847 92.6313 318.875C105.193 329.035 124.527 330.987 137.352 323.367C152.283 314.5 158.05 298.107 153.312 278.045C148.263 256.69 157.38 239.968 178.7 233.335C186.955 230.772 195.832 230.043 204.446 228.702C222.153 225.927 233.303 215.531 235.552 199.444C238.136 180.981 229.57 165.035 213.036 158.262ZM124.958 16.511C136.97 16.8167 145.942 26.1774 145.464 37.843C145.009 48.4972 135.319 57.2934 124.001 57.3169C111.893 57.364 103.495 48.6383 103.614 36.1966C103.758 23.5432 111.75 16.1817 124.958 16.511ZM34.4149 161.296C22.3074 161.343 13.9088 152.617 14.0284 140.175C14.1481 127.546 22.1639 120.16 35.372 120.49C47.3838 120.795 56.3567 130.156 55.8782 141.822C55.4235 152.452 45.7328 161.272 34.4149 161.296ZM115.1 312.548C102.992 312.525 94.6412 303.775 94.8327 291.334C95.0241 278.704 103.064 271.366 116.272 271.742C128.284 272.095 137.209 281.503 136.658 293.168C136.156 303.823 126.417 312.572 115.1 312.548ZM198.871 212.262C186.763 212.309 178.365 203.583 178.484 191.142C178.604 178.512 186.62 171.127 199.828 171.456C211.84 171.762 220.813 181.122 220.334 192.788C219.903 203.419 210.189 212.238 198.871 212.262Z" fill="#828DD4"/>
</g>
<defs>
<clipPath id="clip0_246_698">
<rect width="236" height="328" fill="white"/>
</clipPath>
</defs>
</svg>
