<svg width="119" height="29" viewBox="0 0 119 29" fill="none" xmlns="http://www.w3.org/2000/svg">
<g clip-path="url(#clip0_719_392)">
<path d="M14.2235 17.8924C14.2269 18.7698 13.6305 19.3355 12.7153 19.3256C11.838 19.3157 11.2692 18.7748 11.2485 17.9337C11.2278 17.0629 11.9086 16.4098 12.8135 16.4345C13.6529 16.4576 14.22 17.0431 14.2235 17.8924Z" fill="#828DD4"/>
<path d="M21.3459 14.0976C20.4737 13.7496 19.6223 13.8617 18.7639 14.2097C18.09 14.4835 17.3781 14.6715 16.6835 14.8974C15.3632 14.7441 14.2739 14.3037 13.4052 13.4296C12.4486 12.4665 12.0522 11.3252 12.502 10.024C12.9209 8.80522 13.9981 8.45889 15.1874 8.29396C16.4629 8.1175 17.3006 7.3704 17.535 6.2176C17.778 5.02027 17.3109 3.92024 16.3233 3.3661C15.3012 2.79217 13.9361 2.89937 13.026 3.64317C12.0815 4.415 12.0435 5.42433 12.1866 6.50786C12.4296 8.36323 11.4075 9.69415 9.49086 10.0883C9.01515 10.1856 8.52736 10.2367 8.05854 10.3555C6.50729 10.7431 5.69547 12.1086 6.10741 13.5962C6.50039 15.0162 7.93099 15.821 9.4426 15.4598C9.80284 15.3741 10.1476 15.2289 10.5061 15.1316C12.5468 14.5791 14.3894 14.9057 15.8855 16.3916C17.3988 17.8924 16.9127 19.7791 14.8703 20.5196C14.3359 20.7126 13.7706 20.8379 13.2501 21.0606C11.4627 21.8225 11.1559 24.166 12.6727 25.3601C13.5776 26.0725 14.9702 26.2094 15.8941 25.6751C16.9696 25.0533 17.385 23.9038 17.0437 22.497C16.6801 20.9995 17.3368 19.8269 18.8725 19.3619C19.4671 19.1821 20.1066 19.131 20.7271 19.037C22.0026 18.8424 22.8058 18.1134 22.9678 16.9853C23.1539 15.6907 22.5369 14.5725 21.3459 14.0976ZM15.0013 4.15773C15.8665 4.17917 16.5129 4.83555 16.4784 5.65357C16.4456 6.40066 15.7476 7.01747 14.9323 7.01912C14.0602 7.02242 13.4552 6.41056 13.4638 5.53812C13.4741 4.65084 14.0498 4.13464 15.0013 4.15773ZM8.4791 14.3103C7.60695 14.3136 7.00197 13.7018 7.01058 12.8293C7.0192 11.9437 7.59661 11.4258 8.54805 11.4489C9.4133 11.4704 10.0597 12.1267 10.0252 12.9448C9.99244 13.6902 9.29437 14.3087 8.4791 14.3103ZM14.2911 24.9164C13.419 24.9148 12.8174 24.3013 12.8312 23.4288C12.845 22.5432 13.4241 22.0287 14.3756 22.055C15.2408 22.0798 15.8837 22.7395 15.8441 23.5575C15.8079 24.3046 15.1064 24.9181 14.2911 24.9164ZM20.3255 17.8842C19.4533 17.8875 18.8484 17.2756 18.857 16.4032C18.8656 15.5175 19.443 14.9997 20.3944 15.0228C21.2597 15.0442 21.9061 15.7006 21.8716 16.5186C21.8406 17.2641 21.1408 17.8825 20.3255 17.8842Z" fill="#828DD4"/>
</g>
<path d="M35.5947 18.2129C36.7227 18.7695 37.9312 19.0479 39.2202 19.0479C40.8071 19.0479 41.6006 18.3252 41.6006 16.8799C41.6006 16.4111 41.4736 16.0327 41.2197 15.7446C40.9707 15.4517 40.5142 15.2222 39.8501 15.0562L37.6968 14.5142C36.0513 14.0991 35.2285 13.2202 35.2285 11.8774C35.2285 10.8472 35.5825 10.083 36.2905 9.58496C36.9985 9.08203 37.9775 8.83057 39.2275 8.83057C39.8818 8.83057 40.4946 8.90137 41.0659 9.04297C41.6372 9.18457 42.1157 9.375 42.5015 9.61426L42.1353 10.647C41.8081 10.4663 41.3735 10.3052 40.8315 10.1636C40.2944 10.022 39.75 9.95117 39.1982 9.95117C37.4307 9.95117 36.5469 10.564 36.5469 11.7896C36.5469 12.2046 36.6812 12.5391 36.9497 12.793C37.2231 13.042 37.6309 13.2324 38.1729 13.3643L40.231 13.8623C41.1099 14.0723 41.7764 14.4092 42.2305 14.873C42.6846 15.332 42.9116 15.9863 42.9116 16.8359C42.9116 17.9395 42.5723 18.772 41.8936 19.3335C41.2197 19.8901 40.3018 20.1685 39.1396 20.1685C38.2705 20.1685 37.4966 20.0806 36.8179 19.9048C36.144 19.7241 35.6094 19.5117 35.2139 19.2676L35.5947 18.2129ZM54.7695 20V15.8179C54.7695 15.4272 54.7598 15.1001 54.7402 14.8364C54.7256 14.5728 54.6865 14.3042 54.623 14.0308C54.5645 13.7573 54.479 13.5425 54.3667 13.3862C54.2593 13.2251 54.1079 13.0957 53.9126 12.998C53.7173 12.8955 53.4829 12.8442 53.2095 12.8442C52.6724 12.8442 52.2134 12.9883 51.8325 13.2764C51.4565 13.5645 51.188 13.9697 51.0269 14.4922C50.9829 14.8438 50.9609 15.2197 50.9609 15.6201V20H49.7378V15.686C49.7378 15.3247 49.7256 15.0122 49.7012 14.7485C49.6768 14.48 49.6304 14.2212 49.562 13.9722C49.4937 13.7183 49.4009 13.5132 49.2837 13.3569C49.1714 13.2007 49.02 13.0762 48.8296 12.9834C48.6392 12.8906 48.4121 12.8442 48.1484 12.8442C47.5625 12.8442 47.0693 12.9932 46.6689 13.291C46.2734 13.5889 46.0073 13.9844 45.8706 14.4775C45.8267 14.8535 45.8047 15.2612 45.8047 15.7007V20H44.5815C44.5718 14.9756 44.5669 12.2974 44.5669 11.9653H45.5923L45.7461 13.1152C45.9902 12.7441 46.3369 12.4316 46.7861 12.1777C47.2354 11.9238 47.7456 11.7969 48.3169 11.7969C48.6147 11.7969 48.8882 11.8286 49.1372 11.8921C49.3911 11.9507 49.6011 12.0264 49.7671 12.1191C49.938 12.2119 50.0894 12.3242 50.2212 12.4561C50.353 12.583 50.4556 12.71 50.5288 12.8369C50.6021 12.959 50.6631 13.0884 50.7119 13.2251C51.2979 12.2729 52.1938 11.7969 53.3999 11.7969C54.2935 11.7969 54.9478 12.0532 55.3628 12.5659C55.7827 13.0737 55.9927 13.8281 55.9927 14.8291V20H54.7695ZM59.8818 19.1797C60.4629 19.1797 60.9731 19.021 61.4126 18.7036C61.8569 18.3813 62.1426 17.9492 62.2695 17.4072V16.0522C62.2451 16.0522 62.0962 16.0645 61.8228 16.0889C61.5542 16.1133 61.3784 16.1279 61.2954 16.1328C60.2358 16.2256 59.4961 16.3989 59.0762 16.6528C58.6611 16.9067 58.4536 17.3145 58.4536 17.876C58.4536 18.3057 58.5806 18.6304 58.8345 18.8501C59.0884 19.0698 59.4375 19.1797 59.8818 19.1797ZM62.5405 20C62.4673 19.6875 62.3965 19.3506 62.3281 18.9893C61.8838 19.4336 61.4663 19.7412 61.0757 19.9121C60.6851 20.083 60.2261 20.1685 59.6987 20.1685C58.9468 20.1685 58.3413 19.9731 57.8823 19.5825C57.4282 19.187 57.2012 18.6206 57.2012 17.8833C57.2012 17.063 57.5112 16.4551 58.1313 16.0596C58.7563 15.6641 59.6548 15.4175 60.8267 15.3198C60.9878 15.3052 61.2295 15.2856 61.5518 15.2612C61.8789 15.2319 62.123 15.21 62.2842 15.1953V14.4849C62.2842 13.9185 62.1523 13.4985 61.8887 13.2251C61.625 12.9517 61.21 12.8149 60.6436 12.8149C59.8525 12.8149 59.0542 13.0103 58.2485 13.4009C58.2241 13.3423 58.1606 13.1738 58.0581 12.8955C57.9556 12.6123 57.9019 12.4658 57.897 12.4561C58.2534 12.2559 58.6758 12.0972 59.1641 11.98C59.6572 11.8579 60.1577 11.7969 60.6655 11.7969C61.6665 11.7969 62.3867 12.0166 62.8262 12.4561C63.2705 12.8906 63.4927 13.6328 63.4927 14.6826V20H62.5405ZM69.2056 11.8921C69.4253 11.8921 69.6255 11.9067 69.8062 11.936L69.7622 13.064C69.5376 13.0249 69.3423 13.0054 69.1763 13.0054C68.4927 13.0054 67.936 13.2446 67.5063 13.7231C67.0815 14.1968 66.8691 14.7852 66.8691 15.4883V20H65.646C65.6411 15.0684 65.6387 12.3901 65.6387 11.9653H66.6567L66.7739 13.4082C67.0522 12.9541 67.4062 12.5879 67.8359 12.3096C68.2656 12.0312 68.7222 11.8921 69.2056 11.8921ZM73.6294 20.1465C72.8384 20.1465 72.2769 19.9536 71.9448 19.5679C71.6128 19.1821 71.437 18.5596 71.4175 17.7002V12.8735H70.2236L70.2749 12.0679L71.4102 11.9653L71.8276 10.127L72.6333 10.0977V11.9653H74.8672V12.8735H72.6333V17.4805C72.6333 18.0908 72.7261 18.5205 72.9116 18.7695C73.0972 19.0186 73.4146 19.1431 73.8638 19.1431C74.0249 19.1431 74.374 19.104 74.9111 19.0259L74.9624 19.9927C74.3813 20.0952 73.937 20.1465 73.6294 20.1465ZM84.0444 14.6094C84.0444 13.0957 83.6538 11.9946 82.8726 11.3062C82.0913 10.6177 80.9536 10.2734 79.4595 10.2734H77.7603V18.894H79.6719C81.0977 18.894 82.1816 18.5352 82.9238 17.8174C83.6709 17.0947 84.0444 16.0254 84.0444 14.6094ZM85.3994 14.5728C85.3994 16.3354 84.8989 17.6807 83.8979 18.6084C82.897 19.5361 81.5005 20 79.7085 20H76.4932V9.16748H79.4961C80.3994 9.16748 81.2075 9.2749 81.9204 9.48975C82.6333 9.69971 83.251 10.022 83.7734 10.4565C84.3008 10.8862 84.7036 11.4502 84.9819 12.1484C85.2603 12.8418 85.3994 13.6499 85.3994 14.5728ZM89.5889 19.1797C90.1699 19.1797 90.6802 19.021 91.1196 18.7036C91.564 18.3813 91.8496 17.9492 91.9766 17.4072V16.0522C91.9521 16.0522 91.8032 16.0645 91.5298 16.0889C91.2612 16.1133 91.0854 16.1279 91.0024 16.1328C89.9429 16.2256 89.2031 16.3989 88.7832 16.6528C88.3682 16.9067 88.1606 17.3145 88.1606 17.876C88.1606 18.3057 88.2876 18.6304 88.5415 18.8501C88.7954 19.0698 89.1445 19.1797 89.5889 19.1797ZM92.2476 20C92.1743 19.6875 92.1035 19.3506 92.0352 18.9893C91.5908 19.4336 91.1733 19.7412 90.7827 19.9121C90.3921 20.083 89.9331 20.1685 89.4058 20.1685C88.6538 20.1685 88.0483 19.9731 87.5894 19.5825C87.1353 19.187 86.9082 18.6206 86.9082 17.8833C86.9082 17.063 87.2183 16.4551 87.8384 16.0596C88.4634 15.6641 89.3618 15.4175 90.5337 15.3198C90.6948 15.3052 90.9365 15.2856 91.2588 15.2612C91.5859 15.2319 91.8301 15.21 91.9912 15.1953V14.4849C91.9912 13.9185 91.8594 13.4985 91.5957 13.2251C91.332 12.9517 90.917 12.8149 90.3506 12.8149C89.5596 12.8149 88.7612 13.0103 87.9556 13.4009C87.9312 13.3423 87.8677 13.1738 87.7651 12.8955C87.6626 12.6123 87.6089 12.4658 87.604 12.4561C87.9604 12.2559 88.3828 12.0972 88.8711 11.98C89.3643 11.8579 89.8647 11.7969 90.3726 11.7969C91.3735 11.7969 92.0938 12.0166 92.5332 12.4561C92.9775 12.8906 93.1997 13.6328 93.1997 14.6826V20H92.2476ZM97.8726 20.1465C97.0815 20.1465 96.52 19.9536 96.188 19.5679C95.856 19.1821 95.6802 18.5596 95.6606 17.7002V12.8735H94.4668L94.5181 12.0679L95.6533 11.9653L96.0708 10.127L96.8765 10.0977V11.9653H99.1104V12.8735H96.8765V17.4805C96.8765 18.0908 96.9692 18.5205 97.1548 18.7695C97.3403 19.0186 97.6577 19.1431 98.1069 19.1431C98.2681 19.1431 98.6172 19.104 99.1543 19.0259L99.2056 19.9927C98.6245 20.0952 98.1802 20.1465 97.8726 20.1465ZM102.802 19.1797C103.383 19.1797 103.893 19.021 104.333 18.7036C104.777 18.3813 105.062 17.9492 105.189 17.4072V16.0522C105.165 16.0522 105.016 16.0645 104.743 16.0889C104.474 16.1133 104.298 16.1279 104.215 16.1328C103.156 16.2256 102.416 16.3989 101.996 16.6528C101.581 16.9067 101.374 17.3145 101.374 17.876C101.374 18.3057 101.5 18.6304 101.754 18.8501C102.008 19.0698 102.357 19.1797 102.802 19.1797ZM105.46 20C105.387 19.6875 105.316 19.3506 105.248 18.9893C104.804 19.4336 104.386 19.7412 103.996 19.9121C103.605 20.083 103.146 20.1685 102.619 20.1685C101.867 20.1685 101.261 19.9731 100.802 19.5825C100.348 19.187 100.121 18.6206 100.121 17.8833C100.121 17.063 100.431 16.4551 101.051 16.0596C101.676 15.6641 102.575 15.4175 103.747 15.3198C103.908 15.3052 104.149 15.2856 104.472 15.2612C104.799 15.2319 105.043 15.21 105.204 15.1953V14.4849C105.204 13.9185 105.072 13.4985 104.809 13.2251C104.545 12.9517 104.13 12.8149 103.563 12.8149C102.772 12.8149 101.974 13.0103 101.168 13.4009C101.144 13.3423 101.081 13.1738 100.978 12.8955C100.875 12.6123 100.822 12.4658 100.817 12.4561C101.173 12.2559 101.596 12.0972 102.084 11.98C102.577 11.8579 103.078 11.7969 103.585 11.7969C104.586 11.7969 105.307 12.0166 105.746 12.4561C106.19 12.8906 106.413 13.6328 106.413 14.6826V20H105.46Z" fill="#828DD4"/>
<defs>
<clipPath id="clip0_719_392">
<rect width="17" height="23" fill="white" transform="translate(6 3)"/>
</clipPath>
</defs>
</svg>
