<svg width="34" height="4" viewBox="0 0 34 4" fill="none" xmlns="http://www.w3.org/2000/svg">
<path d="M2.95918 2C2.95918 2.26522 2.85598 2.51957 2.67227 2.70711C2.48856 2.89464 2.2394 3 1.97959 3C1.71979 3 1.47063 2.89464 1.28692 2.70711C1.10321 2.51957 1 2.26522 1 2C1 1.73478 1.10321 1.48043 1.28692 1.29289C1.47063 1.10536 1.71979 1 1.97959 1C2.2394 1 2.48856 1.10536 2.67227 1.29289C2.85598 1.48043 2.95918 1.73478 2.95918 2ZM2.95918 2H1.97959M17.9796 2C17.9796 2.26522 17.8764 2.51957 17.6927 2.70711C17.509 2.89464 17.2598 3 17 3C16.7402 3 16.491 2.89464 16.3073 2.70711C16.1236 2.51957 16.0204 2.26522 16.0204 2C16.0204 1.73478 16.1236 1.48043 16.3073 1.29289C16.491 1.10536 16.7402 1 17 1C17.2598 1 17.509 1.10536 17.6927 1.29289C17.8764 1.48043 17.9796 1.73478 17.9796 2ZM17.9796 2H17M33 2C33 2.26522 32.8968 2.51957 32.7131 2.70711C32.5294 2.89464 32.2802 3 32.0204 3C31.7606 3 31.5114 2.89464 31.3277 2.70711C31.144 2.51957 31.0408 2.26522 31.0408 2C31.0408 1.73478 31.144 1.48043 31.3277 1.29289C31.5114 1.10536 31.7606 1 32.0204 1C32.2802 1 32.5294 1.10536 32.7131 1.29289C32.8968 1.48043 33 1.73478 33 2ZM33 2H32.0204" stroke="black" stroke-width="1.5" strokeLinecap="round" strokeLinejoin="round"/>
</svg>
