<svg width="14" height="15" viewBox="0 0 14 15" fill="none" xmlns="http://www.w3.org/2000/svg">
<path d="M8.99273 5.50023L8.74109 11.5001M5.25891 11.5001L5.00727 5.50023M12.2567 3.36028C12.5055 3.39495 12.7527 3.43162 13 3.47095M12.2567 3.36028L11.48 12.6154C11.4483 12.9922 11.2626 13.3441 10.96 13.6008C10.6574 13.8576 10.2603 14.0001 9.848 14H4.152C3.73971 14.0001 3.34256 13.8576 3.03999 13.6008C2.73741 13.3441 2.5517 12.9922 2.52 12.6154L1.74327 3.36028M12.2567 3.36028C11.4174 3.24397 10.5736 3.15569 9.72727 3.09562M1.74327 3.36028C1.49455 3.39428 1.24727 3.43095 1 3.47028M1.74327 3.36028C2.58264 3.24397 3.42635 3.15569 4.27273 3.09562M9.72727 3.09562V2.48497C9.72727 1.69833 9.06545 1.04235 8.20727 1.01768C7.40263 0.994107 6.59737 0.994107 5.79273 1.01768C4.93455 1.04235 4.27273 1.699 4.27273 2.48497V3.09562M9.72727 3.09562C7.9118 2.96701 6.0882 2.96701 4.27273 3.09562" stroke="#FF4228" stroke-width="0.6" strokeLinecap="round" strokeLinejoin="round"/>
</svg>
