<svg width="19" height="17" viewBox="0 0 19 17" fill="none" xmlns="http://www.w3.org/2000/svg">
<path d="M4.72492 3.2047C4.55876 3.46371 4.33706 3.68377 4.07539 3.84945C3.81371 4.01513 3.51839 4.12242 3.21015 4.16378C2.85938 4.21287 2.51138 4.2656 2.16338 4.32287C1.19138 4.48196 0.5 5.32468 0.5 6.29467V13.9546C0.5 14.4971 0.718818 15.0173 1.10832 15.4009C1.49782 15.7845 2.02609 16 2.57692 16H16.4231C16.9739 16 17.5022 15.7845 17.8917 15.4009C18.2812 15.0173 18.5 14.4971 18.5 13.9546V6.29467C18.5 5.32468 17.8077 4.48196 16.8366 4.32287C16.4884 4.26573 16.1394 4.21269 15.7898 4.16378C15.4818 4.12229 15.1866 4.01495 14.9251 3.84928C14.6636 3.6836 14.4421 3.4636 14.276 3.2047L13.5172 2.00836C13.3468 1.73572 13.1122 1.50754 12.8333 1.34312C12.5543 1.17871 12.2393 1.08291 11.9148 1.06382C10.3061 0.978726 8.69392 0.978726 7.08523 1.06382C6.76073 1.08291 6.44567 1.17871 6.16673 1.34312C5.88779 1.50754 5.65318 1.73572 5.48277 2.00836L4.72492 3.2047Z" stroke="black" stroke-width="0.6" strokeLinecap="round" strokeLinejoin="round"/>
<path d="M13.9943 9C13.9943 10.0609 13.5732 11.0783 12.8236 11.8284C12.074 12.5786 11.0573 13 9.99716 13C8.93705 13 7.92035 12.5786 7.17074 11.8284C6.42113 11.0783 6 10.0609 6 9C6 7.93913 6.42113 6.92172 7.17074 6.17157C7.92035 5.42143 8.93705 5 9.99716 5C11.0573 5 12.074 5.42143 12.8236 6.17157C13.5732 6.92172 13.9943 7.93913 13.9943 9ZM15.9929 7H16V7.00711H15.9929V7Z" stroke="black" stroke-width="0.6" strokeLinecap="round" strokeLinejoin="round"/>
</svg>
