<svg width="17" height="12" viewBox="0 0 17 12" fill="none" xmlns="http://www.w3.org/2000/svg">
<path d="M16 2.15V9.85C16 10.2876 15.8177 10.7073 15.4931 11.0167C15.1685 11.3262 14.7283 11.5 14.2692 11.5H10.5M16 2.15C16 1.71239 15.8177 1.29271 15.4931 0.983274C15.1685 0.673839 14.7283 0.5 14.2692 0.5H2.73077C2.27174 0.5 1.83151 0.673839 1.50693 0.983274C1.18235 1.29271 1 1.71239 1 2.15M16 2.15V2.3282C16 2.60991 15.9244 2.88693 15.7803 3.13288C15.6363 3.37884 15.4285 3.58553 15.1769 3.73327L9.40769 7.1176C9.13477 7.27786 8.82054 7.36272 8.5 7.36272C8.17946 7.36272 7.86523 7.27786 7.59231 7.1176L1.82308 3.734C1.57148 3.58626 1.36375 3.37957 1.21967 3.13362C1.07559 2.88766 0.999967 2.61064 1 2.32893V2.15M1 2.15V9.85C1 10.2876 1.18235 10.7073 1.50693 11.0167C1.83151 11.3262 2.27174 11.5 2.73077 11.5H7.59231" stroke="black" stroke-width="0.6" stroke-linecap="round" stroke-linejoin="round"/>
</svg>
