<svg width="13" height="18" viewBox="0 0 13 18" fill="none" xmlns="http://www.w3.org/2000/svg">
<path d="M9.8 7.76923V4.69231C9.8 3.71305 9.45232 2.77389 8.83345 2.08145C8.21458 1.38901 7.37521 1 6.5 1C5.62479 1 4.78542 1.38901 4.16655 2.08145C3.54768 2.77389 3.2 3.71305 3.2 4.69231V7.76923M4.575 17H2.65C2.21239 17 1.79271 16.8055 1.48327 16.4593C1.17384 16.1131 1 15.6435 1 15.1538V9.61538C1 9.12575 1.17384 8.65618 1.48327 8.30996C1.79271 7.96374 2.21239 7.76923 2.65 7.76923H10.35C10.7876 7.76923 11.2073 7.96374 11.5167 8.30996C11.8262 8.65618 12 9.12575 12 9.61538V15.1538C12 15.6435 11.8262 16.1131 11.5167 16.4593C11.2073 16.8055 10.7876 17 10.35 17H8.7" stroke="black" stroke-width="0.6" stroke-linecap="round" stroke-linejoin="round"/>
</svg>
