<svg width="17" height="17" viewBox="0 0 17 17" fill="none" xmlns="http://www.w3.org/2000/svg">
<path d="M4.125 1V2.875M12.875 1V2.875M1 14.125V4.75C1 4.25272 1.19754 3.77581 1.54917 3.42417C1.90081 3.07254 2.37772 2.875 2.875 2.875H14.125C14.6223 2.875 15.0992 3.07254 15.4508 3.42417C15.8025 3.77581 16 4.25272 16 4.75V14.125M1 14.125C1 14.6223 1.19754 15.0992 1.54917 15.4508C1.90081 15.8025 2.37772 16 2.875 16H5.6875M1 14.125V7.875C1 7.37772 1.19754 6.90081 1.54917 6.54917C1.90081 6.19754 2.37772 6 2.875 6H14.125C14.6223 6 15.0992 6.19754 15.4508 6.54917C15.8025 6.90081 16 7.37772 16 7.875V14.125M16 14.125C16 14.6223 15.8025 15.0992 15.4508 15.4508C15.0992 15.8025 14.6223 16 14.125 16H11.5" stroke="black" stroke-width="0.6" strokeLinecap="round" strokeLinejoin="round"/>
</svg>
