<svg width="16" height="13" viewBox="0 0 16 13" fill="none" xmlns="http://www.w3.org/2000/svg">
<path d="M1 7.00667C1 8.07333 1.80626 9.00267 2.94349 9.158C3.7239 9.26467 4.51221 9.34667 5.30769 9.404V12.5L8.23405 9.78267C8.43251 9.59957 8.69889 9.4939 8.97856 9.48733C10.3437 9.45224 11.7054 9.34227 13.0565 9.158C14.1937 9.00267 15 8.074 15 7.006V2.994C15 1.926 14.1937 0.997335 13.0565 0.842002C11.3822 0.613811 9.69222 0.499507 8 0.500002C6.28267 0.500002 4.59405 0.616668 2.94349 0.842002C1.80626 0.997335 1 1.92667 1 2.994V7.006V7.00667Z" stroke="black" stroke-width="0.6" strokeLinecap="round" strokeLinejoin="round"/>
</svg>
