<svg width="15" height="28" viewBox="0 0 19 32" fill="none" xmlns="http://www.w3.org/2000/svg">
<path d="M9.5 25.6429C11.7543 25.6429 13.9163 24.7398 15.5104 23.1323C17.1045 21.5249 18 19.3447 18 17.0714V14.9286M9.5 25.6429C7.24566 25.6429 5.08365 24.7398 3.48959 23.1323C1.89553 21.5249 1 19.3447 1 17.0714V14.9286M9.5 25.6429V31M4.1875 31H14.8125M9.5 21.3571C8.37283 21.3571 7.29183 20.9056 6.4948 20.1019C5.69777 19.2982 5.25 18.2081 5.25 17.0714V5.28571C5.25 4.14907 5.69777 3.05898 6.4948 2.25526C7.29183 1.45153 8.37283 1 9.5 1C10.6272 1 11.7082 1.45153 12.5052 2.25526C13.3022 3.05898 13.75 4.14907 13.75 5.28571V17.0714C13.75 18.2081 13.3022 19.2982 12.5052 20.1019C11.7082 20.9056 10.6272 21.3571 9.5 21.3571Z" stroke="black" stroke-width="1.5" strokeLinecap="round" strokeLinejoin="round"/>
</svg>
